# xmcd
#
# Track frame offsets: 
#        150
#        15537
#        27648
#        41509
#        56451
#        66189
#        77119
#        87276
#        96567
#        107477
#        120071
#        131855
#
# Disc length: 1911 seconds
#
# Revision: 0
# Processed by: cddbd v1.4PL0 Copyright (c) Steve Scherf et al.
# Submitted via: ExactAudioCopy v0.90b4
#
DISCID=9807750c
DTITLE=John Davis - Christmas In The Country
DYEAR=1993
DGENRE=Country
TTITLE0=When A Child Is Born
TTITLE1=Santa Claus Is Coming To Town
TTITLE2=Mary's Boy Child
TTITLE3=Silver Bells
TTITLE4=Sleigh Ride
TTITLE5=Walking In A Winter Wonderland
TTITLE6=Rudolph The Red-Nosed Reindeer
TTITLE7=Let It Snow, Let It Snow, Let It Snow
TTITLE8=Frosty The Snowman
TTITLE9=Away In A Manger
TTITLE10=Jingle Bells
TTITLE11=Silent Night
EXTD=
EXTT0=
EXTT1=
EXTT2=
EXTT3=
EXTT4=
EXTT5=
EXTT6=
EXTT7=
EXTT8=
EXTT9=
EXTT10=
EXTT11=
PLAYORDER=
